<svg viewBox="164.072 351.143 88.91182 88.91182" xml:space="preserve" xmlns="http://www.w3.org/2000/svg" style="max-height: 500px" width="88.91182" height="88.91182">
  <path d="m243.63 379.09-37.842-1.852 46.229-.034v-3.727h-52.125l-.001 7.798v6.201c0 .115-1.52-9.144-1.87-11.734h-4.098v13.029c0 .123-1.753-10.888-1.939-12.264H164.07c1.902 1.648 12.401 10.598 19.865 14.28 3.741 1.846 8.33 1.86 12.414 1.974 2.075.06 4.25.217 5.803 1.754 2.255 2.236 2.758 5.704.814 8.33-1.922 2.594-7.335 3.156-7.335 3.156l-4.509 5.531v6.424h10.251l.319-6.348 8.863-6.285c-.946.757-3.058 2.783-6.229 7.666-.717 1.102-1.275 2.306-1.711 3.49 2.238-1.896 6.84-3.194 12.153-3.194 5.307 0 9.903 1.295 12.146 3.188-.437-1.185-.994-2.385-1.709-3.483-3.172-4.883-5.284-6.909-6.229-7.666l8.863 6.285.32 6.348h9.565v-6.424l-4.507-5.531s-6.675-.425-8.423-3.156c-5.032-7.869 2.115-20.082 18.836-23.756z" fill="#1E2D41"/>
</svg>
